<?xml version="1.0" standalone="no"?>
<!DOCTYPE svg PUBLIC "-//W3C//DTD SVG 20010904//EN"
 "http://www.w3.org/TR/2001/REC-SVG-20010904/DTD/svg10.dtd">
<svg version="1.0" xmlns="http://www.w3.org/2000/svg"
 width="128.000000pt" height="128.000000pt" viewBox="0 0 128.000000 128.000000"
 preserveAspectRatio="xMidYMid meet">

<g transform="translate(0.000000,128.000000) scale(0.100000,-0.100000)"
fill="#000000" stroke="none">
<path d="M0 640 l0 -640 640 0 640 0 0 640 0 640 -640 0 -640 0 0 -640z m230
84 c30 -19 66 -43 80 -54 45 -35 3 -21 -73 25 -41 25 -77 45 -81 45 -3 0 -6
-63 -6 -139 0 -83 -4 -142 -10 -146 -7 -4 -10 50 -10 155 l0 161 23 -6 c12 -4
47 -22 77 -41z m920 -115 c0 -106 -3 -158 -10 -154 -7 4 -9 54 -5 140 3 85 1
136 -5 140 -6 4 -44 -14 -86 -40 -42 -25 -78 -44 -81 -41 -11 11 151 116 178
116 5 0 9 -72 9 -161z"/>
</g>
</svg>
